<svg style="fill: #4D4D4D" xmlns="http://www.w3.org/2000/svg" viewBox="0 0 95.9 96"><title>clock</title><g id="Слой_2" data-name="Слой 2"><g id="Слой_1-2" data-name="Слой 1"><path d="M64.7,67.9a2.78,2.78,0,0,1-2.1-.8L45.4,53.4a3.35,3.35,0,0,1-1.3-2.7V23.2a3.4,3.4,0,0,1,6.8,0V49.1l16,12.7a3.45,3.45,0,0,1-2.2,6.1Z"/><path d="M48,96A48,48,0,0,1,48,0,52.88,52.88,0,0,1,60.5,1.6a3.34,3.34,0,0,1,2.3,4,3.34,3.34,0,0,1-4,2.3A39,39,0,0,0,48,6.5,41.5,41.5,0,1,0,89.5,48a40.49,40.49,0,0,0-.6-7,3.2,3.2,0,1,1,6.3-1.1,44.32,44.32,0,0,1,.7,8.1A47.86,47.86,0,0,1,48,96Z"/></g></g></svg>