<?xml version="1.0" encoding="iso-8859-1"?>
<!-- Generator: Adobe Illustrator 19.0.0, SVG Export Plug-In . SVG Version: 6.00 Build 0)  -->
<svg xmlns="http://www.w3.org/2000/svg" xmlns:xlink="http://www.w3.org/1999/xlink" version="1.1" id="Capa_1" x="0px" y="0px" viewBox="0 0 480 480" style="enable-background:new 0 0 480 480;" xml:space="preserve" width="512px" height="512px">
<g>
	<g>
		<path d="M368,128c-4.418,0-8,3.582-8,8v208c0,66.274-53.726,120-120,120s-120-53.726-120-120V104c0-48.601,39.399-88,88-88    s88,39.399,88,88v224c0,30.928-25.072,56-56,56c-30.928,0-56-25.072-56-56V136c0-4.418-3.582-8-8-8s-8,3.582-8,8v192    c0,39.764,32.236,72,72,72c39.765,0,72-32.236,72-72V104C312,46.562,265.438,0,208,0S104,46.562,104,104v240    c0.084,75.076,60.924,135.916,136,136c75.076-0.084,135.916-60.924,136-136V136C376,131.582,372.418,128,368,128z" fill="#2a5885"/>
	</g>
</g>
<g>
</g>
<g>
</g>
<g>
</g>
<g>
</g>
<g>
</g>
<g>
</g>
<g>
</g>
<g>
</g>
<g>
</g>
<g>
</g>
<g>
</g>
<g>
</g>
<g>
</g>
<g>
</g>
<g>
</g>
</svg>
